# xmcd CD database file
#
# Track frame offsets:
#	150
#	15499
#	35272
#	47243
#	65956
#	80553
#	105412
#	121642
#	148697
#	165500
#	184507
#	209248
#
# Disc length: 2888 seconds
#
# Revision: 0
# Processed by: cddbd v1.5.1PL2 Copyright (c) Steve Scherf et al.
# Submitted via: CDex 1.51
#
DISCID=a20b460c
DTITLE=Blues Fools  - All These Oldies
DYEAR=2003
DGENRE=Blues
TTITLE0=Just Your Fool
TTITLE1=Bring It On Home
TTITLE2=Can't Get No Grindin'
TTITLE3=Ain't Nobudy's Business
TTITLE4=Have Myself A Ball
TTITLE5=Walking Blues
TTITLE6=Te-Ni-Nee-Ni-Nu
TTITLE7=Blues With The Feeling
TTITLE8=The Harpdressed Man
TTITLE9=Need My Baby
TTITLE10=Bright Lights, Big City
TTITLE11=Fun Deal
EXTD=YEAR: 2003
EXTT0=
EXTT1=
EXTT2=
EXTT3=
EXTT4=
EXTT5=
EXTT6=
EXTT7=
EXTT8=
EXTT9=
EXTT10=
EXTT11=
PLAYORDER=
